# xmcd
#
# Track frame offsets:
#	150
#	15820
#	28230
#	45050
#	62442
#	78862
#	97340
#	115357
#	129642
#	146000
#
# Disc length: 2224 seconds
# Revision: 3
# Processed by: cddbd v1.5.2PL0 Copyright (c) Steve Scherf et al.
# Submitted via: dBpowerAMP V12.0
#
DISCID=7908ae0a
DTITLE=Sawyer Brown - Wide Open
DYEAR=1988
DGENRE=Country
TTITLE0=My Baby's Gone
TTITLE1=Old Pair of Shoes
TTITLE2=What Am I Going to Tell My Heart
TTITLE3=Blue Denim Soul
TTITLE4=It Wasn't His Child
TTITLE5=Wide Open
TTITLE6=Falling Apart at the Heart
TTITLE7=Axe to Grind
TTITLE8=Running Out of Reasons to Run
TTITLE9=Field Hand
EXTD=
EXTT0=
EXTT1=
EXTT2=
EXTT3=
EXTT4=
EXTT5=
EXTT6=
EXTT7=
EXTT8=
EXTT9=
PLAYORDER=
